<?xml version="1.0" encoding="UTF-8" standalone="no"?>
<svg
   xmlns:dc="http://purl.org/dc/elements/1.1/"
   xmlns:cc="http://creativecommons.org/ns#"
   xmlns:rdf="http://www.w3.org/1999/02/22-rdf-syntax-ns#"
   xmlns:svg="http://www.w3.org/2000/svg"
   xmlns="http://www.w3.org/2000/svg"
   version="1.1"
   id="svg3336"
   viewBox="0 0 744.09448819 1052.3622047"
   height="297mm"
   width="210mm">
  <defs
     id="defs3338" />
  <metadata
     id="metadata3341">
    <rdf:RDF>
      <cc:Work
         rdf:about="">
        <dc:format>image/svg+xml</dc:format>
        <dc:type
           rdf:resource="http://purl.org/dc/dcmitype/StillImage" />
        <dc:title></dc:title>
      </cc:Work>
    </rdf:RDF>
  </metadata>
  <g
     id="layer1">
    <path
       transform="matrix(-0.82598101,5.0340702e-4,-5.0099975e-4,-0.8220312,698.91977,850.69467)"
       d="M -148.57142,723.79078 31.114494,411.47765 210.80042,99.164506 391.42857,410.93364 l 180.62815,311.76915 -360.31406,0.544 z"
       id="path3361-4"
       style="fill:#ffd686;fill-opacity:1;fill-rule:evenodd;stroke:none;stroke-width:1px;stroke-linecap:butt;stroke-linejoin:miter;stroke-opacity:1" />
    <path
       transform="matrix(0.82878469,0,0,0.82203135,49.263867,173.75717)"
       d="M -148.57142,723.79078 31.114494,411.47765 210.80042,99.164506 391.42857,410.93364 l 180.62815,311.76915 -360.31406,0.544 z"
       id="path3361"
       style="fill:#578fd7;fill-opacity:1;fill-rule:evenodd;stroke:none;stroke-width:1px;stroke-linecap:butt;stroke-linejoin:miter;stroke-opacity:1" />
    <rect
       ry="49.497532"
       y="448.70718"
       x="-252.65997"
       height="119.19811"
       width="1224.3063"
       id="rect4334"
       style="fill:#000000;fill-opacity:0.4875;stroke:none" />
    <path
       transform="matrix(0.2839062,0,0,0.26035206,-362.65532,423.41311)"
       d="m 959.97236,349.75493 -148.54394,0.0476 -148.54393,0.0476 74.23073,-128.66663 74.23075,-128.666615 74.31321,128.619025 z"
       id="path3344-9-4"
       style="fill:#afd8ff;fill-opacity:1;fill-rule:evenodd;stroke:none;stroke-width:1px;stroke-linecap:butt;stroke-linejoin:miter;stroke-opacity:1" />
    <path
       transform="matrix(0.12541263,0.20040214,-0.21094835,0.11914271,867.50774,417.65834)"
       d="m 545.68662,341.18349 -148.54394,0.0476 -148.54393,0.0476 74.23074,-128.66663 74.23075,-128.666617 74.3132,128.619017 z"
       id="path3344-1-1-3"
       style="fill:#afd8ff;fill-opacity:1;fill-rule:evenodd;stroke:none;stroke-width:1px;stroke-linecap:butt;stroke-linejoin:miter;stroke-opacity:1" />
    <path
       transform="matrix(0.12854101,0,0,0.13552548,811.91353,462.2968)"
       d="m 959.97236,349.75493 -148.54394,0.0476 -148.54393,0.0476 74.23073,-128.66663 74.23075,-128.666615 74.31321,128.619025 z"
       id="path3344-9-4-2"
       style="fill:#afd8ff;fill-opacity:1;fill-rule:evenodd;stroke:none;stroke-width:1px;stroke-linecap:butt;stroke-linejoin:miter;stroke-opacity:1" />
    <path
       transform="matrix(0.07365717,0.11380119,-0.12389389,0.06765687,-192.4568,460.45258)"
       d="m 545.68662,341.18349 -148.54394,0.0476 -148.54393,0.0476 74.23074,-128.66663 74.23075,-128.666617 74.3132,128.619017 z"
       id="path3344-1-1-3-3"
       style="fill:#afd8ff;fill-opacity:1;fill-rule:evenodd;stroke:none;stroke-width:1px;stroke-linecap:butt;stroke-linejoin:miter;stroke-opacity:1" />
    <path
       transform="matrix(0.06095316,0,0,0.06535421,-273.83484,487.80633)"
       d="m 959.97236,349.75493 -148.54394,0.0476 -148.54393,0.0476 74.23073,-128.66663 74.23075,-128.666615 74.31321,128.619025 z"
       id="path3344-9-4-2-7"
       style="fill:#afd8ff;fill-opacity:1;fill-rule:evenodd;stroke:none;stroke-width:1px;stroke-linecap:butt;stroke-linejoin:miter;stroke-opacity:1" />
    <path
       transform="matrix(0.03561595,0.06045168,-0.05990725,0.03593961,945.65122,481.26589)"
       d="m 545.68662,341.18349 -148.54394,0.0476 -148.54393,0.0476 74.23074,-128.66663 74.23075,-128.666617 74.3132,128.619017 z"
       id="path3344-1-1-3-3-7"
       style="fill:#afd8ff;fill-opacity:1;fill-rule:evenodd;stroke:none;stroke-width:1px;stroke-linecap:butt;stroke-linejoin:miter;stroke-opacity:1" />
    <path
       d="m 371.99999,513.21935 -148.54394,0.0476 -148.543931,0.0476 74.230741,-128.66663 74.23075,-128.66662 74.3132,128.61902 z"
       id="path3344"
       style="fill:#afd8ff;fill-opacity:1;fill-rule:evenodd;stroke:none;stroke-width:1px;stroke-linecap:butt;stroke-linejoin:miter;stroke-opacity:1" />
    <path
       transform="matrix(0.52254779,0,0,0.50323925,325.9898,334.03688)"
       d="m 959.97236,349.75493 -148.54394,0.0476 -148.54393,0.0476 74.23073,-128.66663 74.23075,-128.666615 74.31321,128.619025 z"
       id="path3344-9"
       style="fill:#afd8ff;fill-opacity:1;fill-rule:evenodd;stroke:none;stroke-width:1px;stroke-linecap:butt;stroke-linejoin:miter;stroke-opacity:1" />
    <path
       transform="matrix(0.52489664,0.85951061,-0.88289422,0.51099466,540.84742,126.49637)"
       d="m 545.68662,341.18349 -148.54394,0.0476 -148.54393,0.0476 74.23074,-128.66663 74.23075,-128.666617 74.3132,128.619017 z"
       id="path3344-1"
       style="fill:#afd8ff;fill-opacity:1;fill-rule:evenodd;stroke:none;stroke-width:1px;stroke-linecap:butt;stroke-linejoin:miter;stroke-opacity:1" />
    <path
       transform="matrix(0.29156442,0.45436447,-0.49042139,0.27012793,3.5762244,308.63812)"
       d="m 545.68662,341.18349 -148.54394,0.0476 -148.54393,0.0476 74.23074,-128.66663 74.23075,-128.666617 74.3132,128.619017 z"
       id="path3344-1-1"
       style="fill:#afd8ff;fill-opacity:1;fill-rule:evenodd;stroke:none;stroke-width:1px;stroke-linecap:butt;stroke-linejoin:miter;stroke-opacity:1" />
  </g>
</svg>
