<?xml version="1.0" encoding="UTF-8" standalone="no"?>
<svg
   xmlns:dc="http://purl.org/dc/elements/1.1/"
   xmlns:cc="http://creativecommons.org/ns#"
   xmlns:rdf="http://www.w3.org/1999/02/22-rdf-syntax-ns#"
   xmlns:svg="http://www.w3.org/2000/svg"
   xmlns="http://www.w3.org/2000/svg"
   xmlns:sodipodi="http://sodipodi.sourceforge.net/DTD/sodipodi-0.dtd"
   xmlns:inkscape="http://www.inkscape.org/namespaces/inkscape"
   version="1.1"
   id="svg2"
   viewBox="0 0 1224 522.00003"
   height="5.8000002in"
   width="13.6in"
   inkscape:version="0.91 r13725"
   sodipodi:docname="NexLogoCenteredFaded.svg">
  <sodipodi:namedview
     pagecolor="#ffffff"
     bordercolor="#666666"
     borderopacity="1"
     objecttolerance="10"
     gridtolerance="10"
     guidetolerance="10"
     inkscape:pageopacity="0"
     inkscape:pageshadow="2"
     inkscape:window-width="1600"
     inkscape:window-height="838"
     id="namedview3354"
     showgrid="false"
     inkscape:zoom="0.83189031"
     inkscape:cx="572.79608"
     inkscape:cy="338.20439"
     inkscape:window-x="-8"
     inkscape:window-y="-8"
     inkscape:window-maximized="1"
     inkscape:current-layer="layer1-3" />
  <defs
     id="defs4" />
  <metadata
     id="metadata7">
    <rdf:RDF>
      <cc:Work
         rdf:about="">
        <dc:format>image/svg+xml</dc:format>
        <dc:type
           rdf:resource="http://purl.org/dc/dcmitype/StillImage" />
        <dc:title></dc:title>
      </cc:Work>
    </rdf:RDF>
  </metadata>
  <g
     transform="translate(0,-530.36217)"
     id="layer1">
    <g
       transform="translate(253.36398,280.65116)"
       id="layer1-3">
      <path
         style="fill:#ffd686;fill-opacity:0.30898875;fill-rule:evenodd;stroke:none;stroke-width:1px;stroke-linecap:butt;stroke-linejoin:miter;stroke-opacity:1"
         id="path3361-4"
         d="M -148.57142,723.79078 31.114494,411.47765 210.80042,99.164506 391.42857,410.93364 l 180.62815,311.76915 -360.31406,0.544 z"
         transform="matrix(-0.82598101,5.0340702e-4,-5.0099975e-4,-0.8220312,698.91977,850.69467)" />
      <path
         style="fill:#578fd7;fill-opacity:0.26966292;fill-rule:evenodd;stroke:none;stroke-width:1px;stroke-linecap:butt;stroke-linejoin:miter;stroke-opacity:1"
         id="path3361"
         d="M -148.57142,723.79078 31.114494,411.47765 210.80042,99.164506 391.42857,410.93364 l 180.62815,311.76915 -360.31406,0.544 z"
         transform="matrix(0.82878469,0,0,0.82203135,49.263867,173.75717)" />
      <path
         style="fill:#afd8ff;fill-opacity:0.55056179;fill-rule:evenodd;stroke:none;stroke-width:1px;stroke-linecap:butt;stroke-linejoin:miter;stroke-opacity:1"
         id="path3344-9-4"
         d="m 959.97236,349.75493 -148.54394,0.0476 -148.54393,0.0476 74.23073,-128.66663 74.23075,-128.666615 74.31321,128.619025 z"
         transform="matrix(0.2839062,0,0,0.26035206,-362.65532,423.41311)" />
      <path
         style="fill:#afd8ff;fill-opacity:0.33146068;fill-rule:evenodd;stroke:none;stroke-width:1px;stroke-linecap:butt;stroke-linejoin:miter;stroke-opacity:1"
         id="path3344-1-1-3"
         d="m 545.68662,341.18349 -148.54394,0.0476 -148.54393,0.0476 74.23074,-128.66663 74.23075,-128.666617 74.3132,128.619017 z"
         transform="matrix(0.12541263,0.20040214,-0.21094835,0.11914271,867.50774,417.65834)" />
      <path
         style="fill:#afd8ff;fill-opacity:0.51123595;fill-rule:evenodd;stroke:none;stroke-width:1px;stroke-linecap:butt;stroke-linejoin:miter;stroke-opacity:1"
         id="path3344-9-4-2"
         d="m 959.97236,349.75493 -148.54394,0.0476 -148.54393,0.0476 74.23073,-128.66663 74.23075,-128.666615 74.31321,128.619025 z"
         transform="matrix(0.12854101,0,0,0.13552548,811.91353,462.2968)" />
      <path
         style="fill:#afd8ff;fill-opacity:0.52247189;fill-rule:evenodd;stroke:none;stroke-width:1px;stroke-linecap:butt;stroke-linejoin:miter;stroke-opacity:1"
         id="path3344-1-1-3-3"
         d="m -192.53362,547.63577 -10.94722,-16.90125 -10.94722,-16.90126 21.40863,-0.25763 21.40864,-0.25764 -10.46141,17.15889 z"
         inkscape:connector-curvature="0" />
      <path
         style="fill:#afd8ff;fill-opacity:0.6123595;fill-rule:evenodd;stroke:none;stroke-width:1px;stroke-linecap:butt;stroke-linejoin:miter;stroke-opacity:1"
         id="path3344-9-4-2-7"
         d="m -213.32149,514.66429 -9.05422,0.003 -9.05423,0.003 4.5246,-8.40891 4.5246,-8.4089 4.52963,8.40579 z"
         inkscape:connector-curvature="0" />
      <path
         style="fill:#afd8ff;fill-opacity:0.66292137;fill-rule:evenodd;stroke:none;stroke-width:1px;stroke-linecap:butt;stroke-linejoin:miter;stroke-opacity:1"
         id="path3344-1-1-3-3-7"
         d="m 545.68662,341.18349 -148.54394,0.0476 -148.54393,0.0476 74.23074,-128.66663 74.23075,-128.666617 74.3132,128.619017 z"
         transform="matrix(0.03561595,0.06045168,-0.05990725,0.03593961,945.65122,481.26589)" />
      <path
         style="fill:#afd8ff;fill-opacity:0.35393259;fill-rule:evenodd;stroke:none;stroke-width:1px;stroke-linecap:butt;stroke-linejoin:miter;stroke-opacity:1"
         id="path3344"
         d="m 371.99999,513.21935 -148.54394,0.0476 -148.543931,0.0476 74.230741,-128.66663 74.23075,-128.66662 74.3132,128.61902 z" />
      <path
         style="fill:#afd8ff;fill-opacity:0.40449437;fill-rule:evenodd;stroke:none;stroke-width:1px;stroke-linecap:butt;stroke-linejoin:miter;stroke-opacity:1"
         id="path3344-9"
         d="m 959.97236,349.75493 -148.54394,0.0476 -148.54393,0.0476 74.23073,-128.66663 74.23075,-128.666615 74.31321,128.619025 z"
         transform="matrix(0.52254779,0,0,0.50323925,325.9898,334.03688)" />
      <path
         style="fill:#afd8ff;fill-opacity:0.51685393;fill-rule:evenodd;stroke:none;stroke-width:1px;stroke-linecap:butt;stroke-linejoin:miter;stroke-opacity:1"
         id="path3344-1"
         d="m 545.68662,341.18349 -148.54394,0.0476 -148.54393,0.0476 74.23074,-128.66663 74.23075,-128.666617 74.3132,128.619017 z"
         transform="matrix(0.52489664,0.85951061,-0.88289422,0.51099466,540.84742,126.49637)" />
      <path
         style="fill:#afd8ff;fill-opacity:0.53370786;fill-rule:evenodd;stroke:none;stroke-width:1px;stroke-linecap:butt;stroke-linejoin:miter;stroke-opacity:1"
         id="path3344-1-1"
         d="m 545.68662,341.18349 -148.54394,0.0476 -148.54393,0.0476 74.23074,-128.66663 74.23075,-128.666617 74.3132,128.619017 z"
         transform="matrix(0.29156442,0.45436447,-0.49042139,0.27012793,3.5762244,308.63812)" />
    </g>
  </g>
</svg>
